<mxfile host="app.diagrams.net" modified="2024-07-10T13:20:08.751Z" agent="Mozilla/5.0 (Macintosh; Intel Mac OS X 10_15_7) AppleWebKit/537.36 (KHTML, like Gecko) Chrome/126.0.0.0 Safari/537.36" etag="s0qpfCI3hCIzWpP-6yTY" version="24.4.4" type="device">
  <diagram id="C5RBs43oDa-KdzZeNtuy" name="Page-1">
    <mxGraphModel dx="1036" dy="645" grid="1" gridSize="10" guides="1" tooltips="1" connect="1" arrows="1" fold="1" page="1" pageScale="1" pageWidth="827" pageHeight="1169" math="0" shadow="0">
      <root>
        <mxCell id="WIyWlLk6GJQsqaUBKTNV-0" />
        <mxCell id="WIyWlLk6GJQsqaUBKTNV-1" parent="WIyWlLk6GJQsqaUBKTNV-0" />
        <mxCell id="10f_xWXHlFIcY2VpPdPC-54" style="edgeStyle=orthogonalEdgeStyle;rounded=0;orthogonalLoop=1;jettySize=auto;html=1;endArrow=none;endFill=0;strokeWidth=1;endSize=6;jumpSize=6;swimlaneLine=1;" edge="1" parent="WIyWlLk6GJQsqaUBKTNV-1" target="10f_xWXHlFIcY2VpPdPC-41">
          <mxGeometry relative="1" as="geometry">
            <mxPoint x="451.47000000000025" y="330" as="targetPoint" />
            <Array as="points">
              <mxPoint x="377" y="380" />
              <mxPoint x="451" y="380" />
            </Array>
            <mxPoint x="376.47" y="420" as="sourcePoint" />
          </mxGeometry>
        </mxCell>
        <mxCell id="10f_xWXHlFIcY2VpPdPC-27" style="edgeStyle=orthogonalEdgeStyle;rounded=0;orthogonalLoop=1;jettySize=auto;html=1;entryX=0;entryY=0.5;entryDx=0;entryDy=0;endArrow=none;endFill=0;" edge="1" parent="WIyWlLk6GJQsqaUBKTNV-1" target="10f_xWXHlFIcY2VpPdPC-31">
          <mxGeometry relative="1" as="geometry">
            <mxPoint x="370" y="575" as="sourcePoint" />
          </mxGeometry>
        </mxCell>
        <mxCell id="10f_xWXHlFIcY2VpPdPC-47" value="" style="group" vertex="1" connectable="0" parent="WIyWlLk6GJQsqaUBKTNV-1">
          <mxGeometry x="399" y="240" width="350" height="230" as="geometry" />
        </mxCell>
        <mxCell id="10f_xWXHlFIcY2VpPdPC-46" style="edgeStyle=orthogonalEdgeStyle;rounded=0;orthogonalLoop=1;jettySize=auto;html=1;entryX=0.5;entryY=1;entryDx=0;entryDy=0;endArrow=diamond;endFill=0;strokeWidth=1;endSize=6;jumpSize=6;exitX=0.5;exitY=0;exitDx=0;exitDy=0;swimlaneLine=1;" edge="1" parent="10f_xWXHlFIcY2VpPdPC-47" source="10f_xWXHlFIcY2VpPdPC-44">
          <mxGeometry relative="1" as="geometry">
            <mxPoint x="55" y="230" as="sourcePoint" />
            <mxPoint x="120.00000000000023" y="70" as="targetPoint" />
            <Array as="points">
              <mxPoint x="255" y="140" />
              <mxPoint x="120" y="140" />
            </Array>
          </mxGeometry>
        </mxCell>
        <mxCell id="10f_xWXHlFIcY2VpPdPC-44" value="&lt;p style=&quot;margin:0px;margin-top:4px;text-align:center;&quot;&gt;&lt;b&gt;LadeSample&lt;/b&gt;&lt;/p&gt;&lt;hr size=&quot;1&quot; style=&quot;border-style:solid;&quot;&gt;&lt;p style=&quot;margin:0px;margin-left:4px;&quot;&gt;+ uuid: str(37)&lt;br&gt;+ other_data...&lt;/p&gt;&lt;hr size=&quot;1&quot; style=&quot;border-style:solid;&quot;&gt;&lt;p style=&quot;margin:0px;margin-left:4px;&quot;&gt;&lt;br&gt;&lt;/p&gt;" style="verticalAlign=top;align=left;overflow=fill;html=1;whiteSpace=wrap;swimlaneLine=1;" vertex="1" parent="10f_xWXHlFIcY2VpPdPC-47">
          <mxGeometry x="160" y="160" width="190" height="70" as="geometry" />
        </mxCell>
        <mxCell id="10f_xWXHlFIcY2VpPdPC-45" value="&lt;p style=&quot;margin:0px;margin-top:4px;text-align:center;&quot;&gt;&lt;b&gt;+ LadeForm: FormDefinition&lt;/b&gt;&lt;/p&gt;&lt;hr size=&quot;1&quot; style=&quot;border-style:solid;&quot;&gt;&lt;p style=&quot;margin:0px;margin-left:4px;&quot;&gt;+ lab: str(37)&lt;br&gt;+ content[]: CustomModelForm(ModelForm)&lt;/p&gt;&lt;hr size=&quot;1&quot; style=&quot;border-style:solid;&quot;&gt;&lt;p style=&quot;margin:0px;margin-left:4px;&quot;&gt;&lt;br&gt;&lt;/p&gt;" style="verticalAlign=top;align=left;overflow=fill;html=1;whiteSpace=wrap;swimlaneLine=1;" vertex="1" parent="10f_xWXHlFIcY2VpPdPC-47">
          <mxGeometry width="240" height="70" as="geometry" />
        </mxCell>
        <mxCell id="10f_xWXHlFIcY2VpPdPC-26" value="FormDefinition" style="swimlane;whiteSpace=wrap;html=1;swimlaneLine=1;" vertex="1" parent="WIyWlLk6GJQsqaUBKTNV-1">
          <mxGeometry x="89" y="200" width="681" height="320" as="geometry">
            <mxRectangle x="160" y="340" width="120" height="30" as="alternateBounds" />
          </mxGeometry>
        </mxCell>
        <mxCell id="10f_xWXHlFIcY2VpPdPC-36" style="edgeStyle=orthogonalEdgeStyle;rounded=0;orthogonalLoop=1;jettySize=auto;html=1;endArrow=none;endFill=0;exitX=0.5;exitY=1;exitDx=0;exitDy=0;swimlaneLine=1;" edge="1" parent="WIyWlLk6GJQsqaUBKTNV-1" source="10f_xWXHlFIcY2VpPdPC-37" target="10f_xWXHlFIcY2VpPdPC-40">
          <mxGeometry relative="1" as="geometry">
            <Array as="points">
              <mxPoint x="189" y="490" />
              <mxPoint x="189" y="510" />
              <mxPoint x="624" y="510" />
            </Array>
          </mxGeometry>
        </mxCell>
        <mxCell id="10f_xWXHlFIcY2VpPdPC-55" style="edgeStyle=orthogonalEdgeStyle;rounded=0;orthogonalLoop=1;jettySize=auto;html=1;exitX=1;exitY=0.5;exitDx=0;exitDy=0;entryX=0;entryY=0.5;entryDx=0;entryDy=0;endArrow=none;endFill=0;" edge="1" parent="WIyWlLk6GJQsqaUBKTNV-1" source="10f_xWXHlFIcY2VpPdPC-37" target="10f_xWXHlFIcY2VpPdPC-39">
          <mxGeometry relative="1" as="geometry" />
        </mxCell>
        <mxCell id="10f_xWXHlFIcY2VpPdPC-37" value="&lt;p style=&quot;margin:0px;margin-top:4px;text-align:center;&quot;&gt;&lt;b&gt;User&lt;/b&gt;&lt;/p&gt;&lt;hr size=&quot;1&quot; style=&quot;border-style:solid;&quot;&gt;&lt;p style=&quot;margin:0px;margin-left:4px;&quot;&gt;+ username: str(50)&lt;br&gt;+ groups: list&lt;/p&gt;&lt;hr size=&quot;1&quot; style=&quot;border-style:solid;&quot;&gt;&lt;p style=&quot;margin:0px;margin-left:4px;&quot;&gt;&lt;br&gt;&lt;/p&gt;" style="verticalAlign=top;align=left;overflow=fill;html=1;whiteSpace=wrap;swimlaneLine=1;" vertex="1" parent="WIyWlLk6GJQsqaUBKTNV-1">
          <mxGeometry x="109" y="420" width="190" height="70" as="geometry" />
        </mxCell>
        <mxCell id="10f_xWXHlFIcY2VpPdPC-38" style="edgeStyle=orthogonalEdgeStyle;rounded=0;orthogonalLoop=1;jettySize=auto;html=1;entryX=0.5;entryY=1;entryDx=0;entryDy=0;endArrow=diamond;endFill=0;strokeWidth=1;endSize=6;jumpSize=6;swimlaneLine=1;" edge="1" parent="WIyWlLk6GJQsqaUBKTNV-1" source="10f_xWXHlFIcY2VpPdPC-39">
          <mxGeometry relative="1" as="geometry">
            <mxPoint x="489.0000000000002" y="330" as="targetPoint" />
            <Array as="points">
              <mxPoint x="414" y="400" />
              <mxPoint x="489" y="400" />
            </Array>
          </mxGeometry>
        </mxCell>
        <mxCell id="10f_xWXHlFIcY2VpPdPC-39" value="&lt;p style=&quot;margin:0px;margin-top:4px;text-align:center;&quot;&gt;&lt;b&gt;Administration&lt;/b&gt;&lt;/p&gt;&lt;hr size=&quot;1&quot; style=&quot;border-style:solid;&quot;&gt;&lt;p style=&quot;margin:0px;margin-left:4px;&quot;&gt;+ uuid: str(37)&lt;br&gt;+ email: srt(50)&lt;/p&gt;&lt;hr size=&quot;1&quot; style=&quot;border-style:solid;&quot;&gt;&lt;p style=&quot;margin:0px;margin-left:4px;&quot;&gt;&lt;br&gt;&lt;/p&gt;" style="verticalAlign=top;align=left;overflow=fill;html=1;whiteSpace=wrap;swimlaneLine=1;" vertex="1" parent="WIyWlLk6GJQsqaUBKTNV-1">
          <mxGeometry x="319" y="420" width="190" height="70" as="geometry" />
        </mxCell>
        <mxCell id="10f_xWXHlFIcY2VpPdPC-40" value="&lt;p style=&quot;margin:0px;margin-top:4px;text-align:center;&quot;&gt;&lt;b&gt;LameSample&lt;/b&gt;&lt;/p&gt;&lt;hr size=&quot;1&quot; style=&quot;border-style:solid;&quot;&gt;&lt;p style=&quot;margin:0px;margin-left:4px;&quot;&gt;+ uuid: str(37)&lt;br&gt;+ other_data...&lt;/p&gt;&lt;hr size=&quot;1&quot; style=&quot;border-style:solid;&quot;&gt;&lt;p style=&quot;margin:0px;margin-left:4px;&quot;&gt;&lt;br&gt;&lt;/p&gt;" style="verticalAlign=top;align=left;overflow=fill;html=1;whiteSpace=wrap;swimlaneLine=1;" vertex="1" parent="WIyWlLk6GJQsqaUBKTNV-1">
          <mxGeometry x="529" y="420" width="190" height="70" as="geometry" />
        </mxCell>
        <mxCell id="10f_xWXHlFIcY2VpPdPC-41" value="&lt;p style=&quot;margin:0px;margin-top:4px;text-align:center;&quot;&gt;&lt;b&gt;+ LameForm: FormDefinition&lt;/b&gt;&lt;/p&gt;&lt;hr size=&quot;1&quot; style=&quot;border-style:solid;&quot;&gt;&lt;p style=&quot;margin:0px;margin-left:4px;&quot;&gt;+ lab: str(37)&lt;br&gt;+ content[]: CustomModelForm(ModelForm)&lt;/p&gt;&lt;hr size=&quot;1&quot; style=&quot;border-style:solid;&quot;&gt;&lt;p style=&quot;margin:0px;margin-left:4px;&quot;&gt;&lt;br&gt;&lt;/p&gt;" style="verticalAlign=top;align=left;overflow=fill;html=1;whiteSpace=wrap;swimlaneLine=1;" vertex="1" parent="WIyWlLk6GJQsqaUBKTNV-1">
          <mxGeometry x="369" y="260" width="240" height="70" as="geometry" />
        </mxCell>
        <mxCell id="10f_xWXHlFIcY2VpPdPC-42" style="edgeStyle=orthogonalEdgeStyle;rounded=0;orthogonalLoop=1;jettySize=auto;html=1;entryX=0.5;entryY=1;entryDx=0;entryDy=0;endArrow=diamond;endFill=0;strokeWidth=1;endSize=6;jumpSize=6;exitX=0.5;exitY=0;exitDx=0;exitDy=0;swimlaneLine=1;" edge="1" parent="WIyWlLk6GJQsqaUBKTNV-1" source="10f_xWXHlFIcY2VpPdPC-40">
          <mxGeometry relative="1" as="geometry">
            <mxPoint x="424" y="490" as="sourcePoint" />
            <mxPoint x="489.0000000000002" y="330" as="targetPoint" />
            <Array as="points">
              <mxPoint x="540" y="420" />
              <mxPoint x="540" y="400" />
              <mxPoint x="489" y="400" />
            </Array>
          </mxGeometry>
        </mxCell>
      </root>
    </mxGraphModel>
  </diagram>
</mxfile>
